<svg xmlns="http://www.w3.org/2000/svg"
shape-rendering="geometricPrecision"
width="4000" height="3143" viewBox="90 165 840 660">
  <metadata>null</metadata>

<path d="
M 96.467 639.108
C 96.977 635.172 97.191 631.327 98.155 627.446
C 99.869 620.542 103.238 613.657 107.409 607.918
C 121.129 589.04 143.929 581.163 166.687 583.82
C 178.035 585.145 189.243 589.055 197.969 596.627
C 211.123 608.042 217.477 625.863 217.355 642.96
C 217.296 651.181 215.745 659.058 212.424 666.596
C 206.507 680.029 195.441 689.694 182.377 695.877
C 179.316 697.326 176.279 698.664 173.002 699.552
C 170.569 700.211 167.603 700.504 165.686 702.263
C 165.757 703.127 167.457 703.405 168.209 703.642
C 171.175 704.574 174.147 705.567 177.038 706.708
C 189.03 711.441 201.209 718.283 214.403 718.787
C 217.766 718.916 221.107 718.741 224.405 718.065
C 226.217 717.693 227.966 716.818 229.826 716.703
C 231.162 716.62 232.802 717.76 232.388 719.236
C 232.021 720.545 230.299 721.645 229.32 722.54
C 226.239 725.361 222.797 727.586 219.17 729.634
C 201.76 739.467 181.946 728.511 166.209 720.213
C 161.329 717.64 156.306 714.545 150.952 713.06
C 145.966 711.676 140.251 711.114 135.234 712.711
C 132.833 713.476 128.81 717.158 126.343 715.506
C 124.39 712.62 126.56 710.152 128.715 708.329
C 131.634 705.858 135.328 703.861 138.998 702.761
C 141.26 702.082 144.156 701.948 146.236 700.868
C 145.804 700.353 144.915 700.421 144.259 700.335
C 142.637 700.12 141.056 699.759 139.457 699.421
C 134.3 698.33 129.27 696.489 124.646 693.943
C 104.977 683.116 94.942 661.112 96.467 639.108 Z
M 118.931 629.62
C 117.91 643.045 120.541 656.889 126.295 669.027
C 129.244 675.248 133.626 681.377 139.128 685.591
C 151.71 695.227 173.81 695.192 184.89 683.044
C 191.305 676.011 193.541 665.631 194.315 656.433
C 196.003 636.384 190.923 611.8 174.239 598.844
C 161.43 588.898 140.146 589.862 129.176 602.033
C 122.403 609.547 119.681 619.757 118.931 629.62 Z"
opacity="1" fill="rgb(102,67,142)" fill-rule="evenodd" />
<path d="
M 227.916 781.103
C 230.145 768.583 238.618 758.503 251.167 755.328
C 255.258 754.293 259.841 754.26 264.016 754.564
C 268.035 754.857 271.958 755.435 275.822 756.631
C 276.898 756.965 279.354 757.409 279.913 758.466
C 279.452 763.051 279.23 768.157 279.623 772.749
C 278.437 772.684 277.247 772.91 276.061 772.897
C 274.337 769.275 275.087 765.646 271.782 762.661
C 263.349 755.046 248.397 758.097 242.488 767.104
C 239.347 771.89 238.417 777.693 238.553 783.318
C 238.811 793.952 243.023 804.92 253.745 808.836
C 255.934 809.636 258.133 809.967 260.448 810.108
C 265.128 810.392 269.963 809.331 274.148 807.202
C 275.978 806.271 277.53 804.645 279.471 804.019
C 280.104 804.521 281.325 805.312 281.046 806.25
C 280.233 808.254 278.131 809.725 276.405 810.917
C 271.385 814.385 265.183 815.422 259.213 815.694
C 255.552 815.86 251.889 815.704 248.356 814.647
C 233.501 810.205 226.282 796.011 227.916 781.103 Z"
opacity="1" fill="rgb(101,64,139)" fill-rule="evenodd" />
<path d="
M 252.813 585.927
C 268.247 586.764 283.698 585.781 299.133 586.068
C 299.785 588.158 299.455 590.761 299.321 592.915
C 295.378 594.297 289.944 592.18 287.276 596.548
C 285.782 598.994 286.263 602.4 286.262 605.144
C 286.259 611.096 286.27 617.048 286.274 623
C 286.277 627.333 286.274 631.667 286.265 636
C 286.227 653.359 283.264 677.258 301.881 686.555
C 304.409 687.817 307.317 688.683 310.112 689.097
C 314.38 689.728 318.792 689.753 323.074 689.198
C 326.201 688.792 329.402 687.987 332.3 686.732
C 350.521 678.836 348.55 655.765 348.542 639.239
C 348.541 635.441 348.444 631.653 348.446 627.854
C 348.451 620.488 348.47 613.114 348.286 605.749
C 348.215 602.924 348.602 598.693 346.745 596.31
C 344.461 593.381 339.861 593.302 336.501 592.941
C 335.407 592.823 333.845 593.077 332.863 592.569
C 332.909 590.393 333.076 588.158 332.967 585.99
C 334.281 585.572 335.978 585.887 337.351 585.933
C 340.404 586.034 343.454 586.134 346.509 586.155
C 352.665 586.197 358.826 586.249 364.983 586.174
C 367.934 586.138 371.024 585.594 373.963 585.884
C 373.891 588.223 374.123 590.469 373.775 592.802
C 369.842 592.735 364.047 593.1 361.343 596.31
C 358.994 599.099 359.596 603.608 359.536 606.993
C 359.371 616.339 359.377 625.698 359.364 635.051
C 359.34 652.61 361.142 674.55 347.585 688.068
C 345.077 690.568 342.205 692.719 339.133 694.468
C 335.01 696.815 330.694 698.387 326.112 699.551
C 320.824 700.894 315.203 701.448 309.754 701.293
C 304.42 701.142 299.005 700.381 293.913 698.767
C 289.961 697.514 286.085 695.96 282.652 693.597
C 280.245 691.94 277.994 690.018 276.06 687.822
C 262.904 672.89 266.075 651.074 266.044 632.731
C 266.029 624.047 266.002 615.362 266.041 606.678
C 266.056 603.294 266.686 598.366 264.15 595.71
C 261.374 592.804 256.318 593.23 252.643 592.82
C 252.57 590.731 252.316 587.954 252.813 585.927 Z"
opacity="1" fill="rgb(103,67,142)" fill-rule="evenodd" />
<path d="
M 265.298 442.057
C 265.396 441.858 265.493 441.66 265.591 441.462
C 269.837 440.839 274.219 441.243 278.496 441.042
C 287.643 440.612 296.844 440.776 306.004 440.76
C 309.804 440.754 313.604 440.745 317.405 440.719
C 318.987 440.708 321.091 440.986 322.539 440.244
C 326.843 438.039 330.798 434.908 334.854 432.282
C 345.083 425.66 355.062 418.59 365.403 412.15
C 377.199 404.804 388.691 396.925 400.362 389.378
C 419.485 377.012 438.639 364.696 457.644 352.148
C 469.358 344.415 481.011 336.583 492.781 328.935
C 496.216 326.704 499.59 324.382 502.998 322.111
C 504.375 321.195 505.937 319.536 507.543 319.168
C 513.631 322.484 519.294 326.92 525.157 330.647
C 538.041 338.838 550.943 347.009 563.707 355.388
C 600.889 379.797 638.42 403.659 675.482 428.252
C 679.707 431.056 683.904 433.895 688.162 436.651
C 689.951 437.809 692.073 439.629 694.122 440.245
C 697.038 441.123 701.206 440.574 704.241 440.568
C 711.163 440.556 718.085 440.557 725.008 440.611
C 731.917 440.665 738.912 440.508 745.808 440.936
C 747.095 441.015 752.21 440.601 751.796 442.275
C 750.584 442.594 749.238 442.345 747.997 442.422
C 744.444 442.643 740.88 442.743 737.305 442.748
C 728.203 442.761 719.101 442.84 709.998 442.849
C 706.086 442.853 702.174 442.864 698.262 442.879
C 696.539 442.886 694.387 443.216 692.735 442.625
C 691.042 442.02 689.335 440.774 687.783 439.866
C 684.352 437.86 680.89 435.873 677.424 433.929
C 667.616 428.428 657.902 422.74 648.047 417.325
C 617.517 400.55 587.004 383.649 556.728 366.419
C 546.928 360.842 537.033 355.441 527.204 349.915
C 523.038 347.573 518.894 345.205 514.704 342.906
C 512.495 341.694 510.332 340.147 508.006 339.185
C 506.294 339.422 504.681 340.885 503.22 341.753
C 499.703 343.843 496.178 345.923 492.634 347.966
C 480.169 355.153 467.643 362.235 455.191 369.445
C 414.251 393.148 372.945 416.351 331.357 438.9
C 329.018 440.168 326.3 442.259 323.734 442.933
C 319.752 443.979 314.636 443.132 310.524 443.123
C 300.849 443.101 291.172 442.95 281.497 442.869
C 277.5 442.835 273.5 442.877 269.503 442.799
C 268.294 442.776 265.95 443.185 265.298 442.057 Z"
opacity="1" fill="rgb(105,70,145)" fill-rule="evenodd" />
<path d="
M 266.854 432.174
C 269.852 430.242 272.555 427.321 275.433 425.129
C 279.267 422.209 283.173 419.387 286.998 416.457
C 301.438 405.398 315.898 394.299 330.487 383.441
C 369.957 354.064 408.488 323.384 447.593 293.515
C 467.748 278.121 487.395 262.013 507.681 246.792
C 508.428 246.863 509.124 247.819 509.719 248.256
C 511.453 249.529 513.159 250.842 514.873 252.141
C 521.189 256.929 527.432 261.814 533.736 266.618
C 549.754 278.826 565.826 290.961 581.714 303.337
C 589.142 309.123 597.06 314.59 604.059 320.879
C 604.327 320.6 603.97 319.093 603.94 318.685
C 603.776 316.476 604.012 314.296 604.039 312.094
C 604.149 303.275 603.638 294.446 604.051 285.636
C 604.812 284.742 608.296 285.268 609.503 285.259
C 614.836 285.218 620.17 285.243 625.504 285.238
C 631.17 285.232 636.837 285.215 642.504 285.226
C 644.132 285.229 647.538 284.606 648.886 285.615
C 650.865 287.096 650.885 289.261 650.985 291.504
C 651.169 295.656 651.118 299.84 651.135 304.003
C 651.183 316.502 651.221 329.001 651.23 341.501
C 651.233 345.167 651.208 348.834 651.252 352.5
C 651.268 353.829 650.881 355.768 651.443 356.966
C 654.533 359.73 658.129 362.02 661.441 364.513
C 666.583 368.383 671.675 372.329 676.812 376.207
C 693.5 388.804 710.216 401.434 726.702 414.296
C 732.551 418.859 738.577 423.207 744.533 427.63
C 746.028 428.741 747.479 429.901 748.837 431.175
C 749.023 431.35 750.022 432.069 749.95 432.255
C 737.653 431.938 725.31 432.28 713.003 432.157
C 709.502 432.122 705.999 432.195 702.498 432.216
C 701.062 432.225 699.091 432.58 697.722 432.093
C 695.603 431.339 693.503 429.136 691.732 427.777
C 687.978 424.898 684.112 422.171 680.351 419.305
C 669.02 410.673 657.307 402.204 645.498 394.24
C 629.623 383.533 614.381 371.843 598.821 360.689
C 568.541 338.982 538.257 317.148 507.523 296.102
C 505.84 296.229 504.084 298.322 502.7 299.274
C 498.523 302.148 494.531 305.306 490.387 308.231
C 474.944 319.132 459.75 330.436 444.569 341.698
C 425.777 355.638 406.57 369.043 387.515 382.619
C 376.621 390.381 365.912 398.421 354.95 406.083
C 346.454 412.02 337.834 417.877 329.499 424.036
C 326.671 426.126 323.82 428.189 320.91 430.164
C 320.023 430.765 318.984 432.035 317.945 432.298
C 316.212 432.737 314.047 432.38 312.275 432.349
C 308.683 432.286 305.092 432.271 301.499 432.274
C 289.924 432.282 278.304 432.647 266.75 432.555
C 266.785 432.428 266.819 432.301 266.854 432.174 Z"
opacity="1" fill="rgb(105,70,145)" fill-rule="evenodd" />
<path d="
M 303.885 755.98
C 312.333 755.915 320.896 755.565 329.341 755.875
C 329.27 756.759 328.854 758.864 329.283 759.596
C 326.861 759.259 322.592 759.417 321.847 762.445
C 321.407 764.231 321.648 766.393 321.639 768.222
C 321.62 771.981 321.598 775.74 321.592 779.5
C 321.583 786.169 321.658 792.833 321.731 799.501
C 321.766 802.615 321.394 806.044 321.87 809.12
C 326.62 808.655 331.718 809.147 336.503 809.148
C 338.615 809.149 341.386 809.514 343.125 808.079
C 346.064 805.654 347.063 800.669 348.327 797.252
C 348.999 797.297 351.382 796.951 351.826 797.477
C 351.612 803.211 349.218 808.67 348.785 814.342
C 345.195 814.817 341.127 814.355 337.498 814.286
C 330.499 814.152 323.497 814.197 316.496 814.218
C 312.326 814.23 307.9 813.945 303.781 814.64
C 303.782 813.614 303.913 812.606 303.985 811.586
C 304.64 810.814 306.481 810.99 307.465 810.812
C 308.904 810.551 310.042 809.75 311.001 808.672
C 312.061 805.734 311.213 801.13 311.227 798.003
C 311.263 789.836 311.287 781.669 311.27 773.502
C 311.264 770.773 311.289 768.043 311.267 765.313
C 311.259 764.276 311.522 762.757 311.006 761.81
C 309.35 758.77 306.418 759.979 303.759 759.223
C 303.71 758.165 303.709 757.111 303.572 756.06
C 303.676 756.034 303.781 756.007 303.885 755.98 Z"
opacity="1" fill="rgb(102,66,139)" fill-rule="evenodd" />
<path d="
M 327.336 295.914
C 334.033 294.879 343.573 296.123 348.7 290.718
C 349.923 289.428 350.391 287.709 350.949 286.068
C 352.886 280.382 352.49 274.52 353.483 268.687
C 354.396 268.719 354.726 273.022 354.817 273.962
C 355.343 279.373 355.746 286.201 359.53 290.461
C 363.274 294.675 370.331 294.764 375.5 295.412
C 377.128 295.616 378.789 295.73 380.408 295.977
C 380.95 296.059 381.633 296.046 381.944 296.536
C 380.749 296.909 379.445 296.809 378.213 296.973
C 371.659 297.846 362.125 298.16 358.469 304.512
C 356.224 308.412 355.657 313.373 355.31 317.788
C 355.175 319.504 354.873 321.192 354.741 322.905
C 354.722 323.141 354.66 324.728 354.225 324.579
C 353.284 322.706 353.382 319.885 353.23 317.827
C 352.922 313.629 352.437 309.065 350.504 305.258
C 346.283 296.94 334.951 298.309 327.204 296.622
C 327.248 296.386 327.292 296.15 327.336 295.914 Z"
opacity="1" fill="rgb(106,69,143)" fill-rule="evenodd" />
<path d="
M 330.93 489.609
C 331.351 484.904 332.773 480.17 335.146 476.083
C 337.959 471.238 341.64 466.706 346.393 463.643
C 359.47 455.214 377.623 456.346 389.252 466.889
C 393.338 470.593 396.544 475.573 398.655 480.643
C 400.904 486.047 401.568 492.161 401.076 497.967
C 400.709 502.304 399.372 506.693 397.417 510.573
C 395.566 514.248 393.128 517.839 390.023 520.575
C 387.011 523.229 383.579 525.717 379.801 527.162
C 361.667 534.095 341.407 525.716 333.576 507.902
C 331.103 502.275 330.387 495.688 330.93 489.609 Z
M 339.463 490.109
C 338.374 501.151 343.669 512.233 353.679 517.434
C 366.403 524.045 383.27 519.989 389.788 506.689
C 391.15 503.91 391.96 500.918 392.271 497.842
C 393.491 485.804 387.262 473.474 375.926 468.521
C 359.781 461.466 341.18 472.689 339.463 490.109 Z"
opacity="1" fill="rgb(102,66,142)" fill-rule="evenodd" />
<path d="
M 361.318 219.783
C 369.388 218.621 377.469 217.96 385.453 216.232
C 389.586 215.337 394.057 214.389 397.643 212.023
C 402.664 208.71 404.97 203.036 406.488 197.429
C 408.874 188.621 410.074 179.574 410.468 170.468
C 411.565 168.988 411.561 172.367 411.702 173.291
C 412.185 176.456 412.238 179.671 412.658 182.842
C 413.785 191.341 415.081 201.98 420.643 208.862
C 424.134 213.181 429.9 214.608 435.06 215.751
C 439.854 216.813 444.647 217.7 449.527 218.259
C 452.355 218.583 455.19 219.034 458.025 219.281
C 458.674 219.338 460.69 219.242 460.895 219.918
C 459.932 220.407 458.584 220.188 457.533 220.256
C 455.203 220.407 452.805 220.648 450.484 220.915
C 444.61 221.59 438.932 222.536 433.192 224.026
C 428.004 225.373 422.833 227.635 419.762 232.247
C 415.101 239.247 413.468 248.813 412.586 257.052
C 412.25 260.19 412.045 263.347 411.775 266.492
C 411.704 267.314 412.013 269.615 410.957 269.624
C 409.506 266.683 410.172 262.173 409.846 258.943
C 409.153 252.104 407.972 244.864 405.443 238.441
C 403.82 234.318 401.972 230.688 398.181 228.152
C 391.326 223.568 381.231 222.39 373.196 221.569
C 370.214 221.264 367.166 221.026 364.174 220.898
C 363.03 220.849 361.292 221.133 361.318 219.783 Z"
opacity="1" fill="rgb(103,69,144)" fill-rule="evenodd" />
<path d="
M 364.856 472.481
C 366.848 469.997 370.333 471.02 372.827 472.231
C 378.625 475.046 383.421 479.32 385.672 485.554
C 386.403 487.579 388.105 492.153 385.744 493.647
C 384.794 493.855 384.002 493.664 383.092 493.381
C 382.34 492.218 382.51 490.523 382.005 489.22
C 380.59 485.569 378.162 482.176 374.936 479.932
C 373.173 478.706 371.125 477.565 369.109 476.821
C 367.977 476.403 366.319 476.301 365.391 475.473
C 364.568 474.74 364.475 473.445 364.856 472.481 Z"
opacity="1" fill="rgb(103,65,141)" fill-rule="evenodd" />
<path d="
M 372.434 756.479
C 372.487 756.326 372.541 756.173 372.594 756.02
C 386.79 756.711 401.098 755.499 415.287 756.193
C 415.237 760.364 415.06 764.714 415.373 768.87
C 414.149 768.8 412.896 768.956 411.7 768.643
C 411.022 766.023 411.174 763.29 409.099 761.236
C 407.519 760.733 405.65 760.876 404.002 760.854
C 400.834 760.811 397.666 760.841 394.499 760.861
C 393.41 760.868 390.577 760.358 389.741 761.101
C 389.551 767.84 389.165 774.941 389.795 781.656
C 393.227 781.6 396.666 781.689 400.1 781.698
C 401.848 781.703 403.895 781.927 405.587 781.471
C 407.584 779.605 406.958 777.107 407.946 774.856
C 409.024 774.494 410.148 774.614 411.265 774.639
C 411.125 779.104 411.207 783.615 411.226 788.087
C 411.232 789.596 411.813 792.167 411.214 793.527
C 410.145 793.61 408.963 793.812 407.906 793.577
C 407.575 791.485 407.868 788.946 406.24 787.314
C 405.183 786.255 403.102 786.499 401.721 786.484
C 397.804 786.44 393.788 786.256 389.892 786.503
C 389.38 788.086 389.72 790.332 389.71 792.001
C 389.687 795.905 389.663 799.81 389.725 803.713
C 389.747 805.123 389.351 808.222 390.398 809.269
C 394.763 809.369 399.138 809.343 403.506 809.319
C 405.84 809.306 408.448 809.628 410.724 809.044
C 413.918 806.95 414.992 802.059 416.294 798.71
C 417.213 798.775 418.666 798.601 419.364 799.309
C 419.075 803.036 418.361 806.677 417.731 810.36
C 417.561 811.35 417.609 813.715 417.032 814.462
C 409.311 813.761 401.254 814.271 393.499 814.273
C 386.531 814.274 379.244 813.727 372.333 814.635
C 372.439 813.513 372.36 812.344 372.665 811.252
C 375.048 810.927 377.955 810.996 379.268 808.556
C 379.842 807.49 379.657 806.094 379.66 804.935
C 379.666 802.29 379.69 799.645 379.695 797
C 379.708 789.001 379.7 781.002 379.663 773.004
C 379.648 769.78 380.455 765.137 379.349 762.091
C 378.4 759.475 374.759 759.387 372.46 759.394
C 372.116 758.568 372.415 757.369 372.434 756.479 Z"
opacity="1" fill="rgb(103,67,141)" fill-rule="evenodd" />
<path d="
M 394.878 448.587
C 396.019 441.217 403.954 436.662 410.934 439.105
C 416.866 441.182 420.148 447.803 419.122 453.786
C 418.585 456.921 417.163 460.2 414.651 462.256
C 409.183 466.733 400.534 464.75 396.801 459.027
C 394.744 455.874 394.312 452.25 394.878 448.587 Z
M 398.914 448.608
C 398.632 451.541 399.362 455.292 401.617 457.345
C 406.968 462.221 414.946 458.068 415.566 451.379
C 416.342 443 403.969 437.05 399.78 445.637
C 399.329 446.561 399.012 447.578 398.914 448.608 Z"
opacity="1" fill="rgb(104,65,140)" fill-rule="evenodd" />
<path d="
M 407.829 443.364
C 409.045 442.993 410.716 444.452 411.233 445.478
C 411.45 445.909 411.696 446.834 411.166 447.044
C 409.895 446.82 407.963 444.625 407.829 443.364 Z"
opacity="1" fill="rgb(100,52,142)" fill-rule="evenodd" />
<path d="
M 408.453 587.112
C 408.542 586.459 408.516 586.846 408.463 585.949
C 411.231 585.745 414.043 586.116 416.813 586.197
C 421.526 586.336 426.244 586.305 430.958 586.391
C 443.944 586.628 456.944 586.562 469.932 586.512
C 475.124 586.492 480.313 586.427 485.507 586.419
C 486.84 586.417 490.298 585.758 491.335 586.528
C 491.624 594.853 491.12 603.241 491.443 611.556
C 491.003 611.81 490.005 611.638 489.492 611.657
C 487.61 611.729 485.644 611.783 483.766 611.633
C 483.415 607.205 483.012 600.669 479.448 597.559
C 476.775 595.226 472.218 595.895 468.922 595.837
C 460.178 595.683 451.122 595.085 442.405 595.745
C 442.504 609.151 443.093 622.758 442.611 636.144
C 449.994 636.683 457.61 636.085 465.005 635.972
C 467.444 635.934 471.604 636.808 473.602 635.071
C 477.073 632.053 476.12 627.311 476.927 623.346
C 478.893 622.605 482.386 622.633 484.439 622.923
C 483.848 630.502 484.23 638.053 483.999 645.629
C 483.865 650.011 484.7 654.703 483.98 659.031
C 482.561 660.002 478.815 659.28 477.17 659.225
C 476.465 658.249 476.784 656.087 476.753 654.917
C 476.678 652.065 476.385 648.733 474.182 646.643
C 472.36 644.914 467.923 645.648 465.561 645.634
C 457.944 645.589 450.037 644.862 442.452 645.46
C 443.023 655.403 442.665 665.532 442.728 675.503
C 442.744 678.003 442.783 680.502 442.84 683.002
C 442.878 684.626 442.744 686.27 443.759 687.637
C 444.532 688.244 445.761 687.984 446.691 687.948
C 448.959 687.861 451.232 687.887 453.501 687.888
C 460.668 687.892 467.835 687.86 475.002 687.833
C 478.542 687.82 482.18 688.438 484.997 685.886
C 487.952 683.209 489.372 678.67 490.557 674.978
C 491.188 673.015 491.639 670.522 493.058 668.98
C 495.103 668.625 497.543 668.99 499.559 669.433
C 499.921 669.756 499.535 670.71 499.46 671.146
C 499.175 672.801 498.892 674.456 498.597 676.11
C 497.622 681.578 496.704 687.057 495.77 692.532
C 495.535 693.911 495.656 697.348 494.586 698.304
C 466.047 697.426 437.192 697.495 408.672 698.779
C 408.534 696.707 408.349 694.362 408.677 692.308
C 412.681 691.542 419.959 691.306 421.634 686.772
C 422.481 684.478 422.144 681.704 422.14 679.315
C 422.132 674.878 422.124 670.44 422.121 666.003
C 422.114 650.835 422.091 635.667 422.087 620.499
C 422.086 615.575 422.092 610.65 422.082 605.725
C 422.077 603.03 422.387 599.758 421.233 597.241
C 419.32 593.069 412.393 593.009 408.452 592.922
C 408.076 591.169 408.301 588.899 408.453 587.112 Z"
opacity="1" fill="rgb(102,67,143)" fill-rule="evenodd" />
<path d="
M 438.282 811.256
C 440.354 810.487 442.79 810.875 444.603 809.372
C 446.077 808.151 446.762 806.259 447.516 804.56
C 448.831 801.592 450.168 798.639 451.433 795.649
C 455.296 786.524 459.116 777.36 462.787 768.157
C 463.979 765.17 465.124 762.163 466.309 759.172
C 466.8 757.934 467.195 756.172 468.009 755.122
C 469.472 755.066 470.924 755.079 472.386 755.099
C 474.736 758.747 475.907 763.403 477.604 767.383
C 481.771 777.156 485.607 787.105 490.015 796.773
C 491.771 800.626 492.998 805.512 495.685 808.832
C 496.529 809.874 497.571 810.421 498.84 810.785
C 499.571 810.994 500.793 810.996 501.328 811.544
C 501.304 812.466 501.23 813.492 501.392 814.398
C 496.981 813.996 492.421 814.311 487.997 814.366
C 484.3 814.413 480.464 814.175 476.791 814.626
C 476.71 813.448 476.824 812.2 477.048 811.043
C 478.904 810.612 481.569 811.166 482.96 809.621
C 483.488 808.158 482.673 806.301 482.212 804.916
C 481.038 801.385 479.805 797.835 478.447 794.374
C 476.955 793.672 473.928 794.25 472.257 794.259
C 467.476 794.284 462.693 794.324 457.914 794.262
C 456.909 795.21 456.565 796.979 456.049 798.242
C 454.737 801.455 451.929 806.114 452.282 809.63
C 453.759 811.158 456.099 810.223 457.495 811.346
C 457.438 812.19 457.452 813.872 457.815 814.63
C 451.322 814.792 444.703 813.902 438.202 814.647
C 438.126 813.51 438.251 812.392 438.282 811.256 Z
M 459.925 789.152
C 459.875 789.306 459.824 789.46 459.774 789.614
C 465.182 789.638 471.031 790.29 476.399 789.698
C 476.49 788.191 475.153 786.15 474.641 784.722
C 473.182 780.651 471.536 776.651 470.064 772.583
C 469.727 771.65 468.851 767.89 467.889 767.863
C 467.173 770.828 465.703 773.777 464.614 776.638
C 463.035 780.79 461.713 785.083 459.925 789.152 Z"
opacity="1" fill="rgb(101,66,139)" fill-rule="evenodd" />
<path d="
M 470.08 393.152
C 480.73 392.582 491.567 393.05 502.232 393.143
C 502.684 395.817 502.329 398.789 502.35 401.5
C 502.392 407.002 502.444 412.504 502.434 418.007
C 502.429 420.602 502.134 423.326 502.324 425.903
C 491.742 425.587 481.077 425.8 470.491 425.872
C 470.025 425.382 470.23 424.188 470.228 423.509
C 470.22 421.508 470.196 419.507 470.189 417.506
C 470.159 409.417 470.544 401.226 470.08 393.152 Z"
opacity="1" fill="rgb(105,69,146)" fill-rule="evenodd" />
<path d="
M 470.218 436.775
C 478.146 436.76 486.078 436.538 494.01 436.662
C 496.007 436.694 498.004 436.719 500.002 436.726
C 500.713 436.728 501.767 436.55 502.376 436.933
C 502.07 442.758 502.442 448.673 502.453 454.506
C 502.461 459.44 502.068 464.478 502.326 469.398
C 491.684 470.32 480.889 468.738 470.261 469.597
C 470.378 458.664 470.319 447.706 470.218 436.775 Z"
opacity="1" fill="rgb(104,69,146)" fill-rule="evenodd" />
<path d="
M 513.815 393.25
C 524.606 392.878 535.446 393.081 546.244 393.142
C 546.481 400.917 546.354 408.726 546.356 416.505
C 546.357 419.608 546.076 422.828 546.319 425.916
C 535.579 426.243 524.84 425.759 514.101 425.917
C 513.508 422.564 513.829 418.906 513.814 415.502
C 513.781 408.094 514 400.651 513.815 393.25 Z"
opacity="1" fill="rgb(104,69,145)" fill-rule="evenodd" />
<path d="
M 513.925 437.576
C 513.937 437.364 513.949 437.151 513.96 436.939
C 524.551 436.244 535.554 436.399 546.159 436.813
C 546.915 439.323 546.307 442.876 546.304 445.5
C 546.299 451.001 546.298 456.501 546.317 462.002
C 546.325 464.446 545.926 467.22 546.27 469.629
C 540.038 469.378 533.739 469.652 527.5 469.685
C 523.044 469.709 518.498 469.381 514.054 469.671
C 513.267 465.51 513.836 460.731 513.816 456.501
C 513.788 450.316 513.199 443.717 513.925 437.576 Z"
opacity="1" fill="rgb(104,70,145)" fill-rule="evenodd" />
<path d="
M 520.266 755.753
C 523.524 755.866 526.799 755.947 530.061 755.951
C 532.062 755.953 534.314 755.729 536.278 756.151
C 548.09 770.575 560.174 784.744 572.565 798.67
C 572.88 798.056 572.658 797.177 572.677 796.504
C 572.739 794.342 572.643 792.167 572.619 790.004
C 572.545 783.389 572.624 776.771 572.614 770.155
C 572.611 767.829 573.343 763.999 572.17 761.917
C 570.806 759.497 567.363 759.517 564.913 759.462
C 564.411 758.836 564.623 756.696 564.821 755.935
C 571.7 756.147 578.755 755.338 585.599 755.86
C 585.552 757.084 585.341 758.365 585.429 759.587
C 584.946 759.89 583.785 759.692 583.232 759.713
C 580.969 759.798 579.26 760.21 578.306 762.496
C 576.852 765.984 577.727 771.284 577.721 775.001
C 577.705 784.166 577.737 793.331 577.685 802.496
C 577.668 805.664 577.654 808.832 577.657 811.999
C 577.659 812.913 577.327 814.839 577.736 815.623
C 576.501 815.665 574.581 815.74 573.414 815.346
C 563.668 804.039 554.514 792.194 544.628 780.997
C 542.112 778.148 539.775 775.147 537.32 772.246
C 536.385 771.14 535.358 769.206 533.963 768.705
C 533.965 778.247 534.007 787.768 534.221 797.309
C 534.292 800.495 533.43 806.09 535.35 808.792
C 536.902 810.977 539.991 810.631 542.341 811.137
C 542.228 812.192 542.207 813.377 542.352 814.426
C 540.347 814.913 537.592 814.385 535.499 814.383
C 530.788 814.377 526.061 814.39 521.357 814.588
C 520.712 813.73 521.109 812.158 521.136 811.125
C 523.797 810.704 527.269 810.941 528.504 807.945
C 529.676 805.1 528.844 800.539 528.854 797.5
C 528.88 789.669 528.936 781.832 528.875 774.001
C 528.855 771.501 528.833 769.001 528.815 766.5
C 528.806 765.343 529.035 763.937 528.508 762.864
C 526.97 759.729 523.587 759.412 520.392 759.497
C 520.184 758.261 520.399 757.002 520.266 755.753 Z"
opacity="1" fill="rgb(103,66,141)" fill-rule="evenodd" />
<path d="
M 532.465 587.11
C 532.52 586.458 532.5 586.831 532.503 585.99
C 536.303 585.83 540.195 586.131 544.009 586.134
C 552.723 586.14 561.425 586.044 570.137 585.889
C 582.022 585.678 594.924 584.746 605.966 589.951
C 621.192 597.126 625.571 616.557 616.251 630.243
C 611.605 637.065 604.706 640.106 597.421 643.264
C 602.602 651.953 608.542 660.183 614.058 668.663
C 618.516 675.516 623.181 683.717 629.718 688.791
C 632.538 690.979 635.756 691.638 638.84 693.191
C 639.138 694.834 639.177 697.044 638.872 698.691
C 633.08 698.697 627.29 698.547 621.496 698.644
C 618.305 698.697 614.378 699.305 611.268 698.614
C 607.872 695.616 605.56 690.991 602.973 687.315
C 597.121 679.001 591.628 670.425 586.097 661.895
C 583.349 657.657 580.882 652.707 577.53 648.924
C 574.38 647.861 569.408 648.371 566.121 648.669
C 566.308 658.243 566.169 667.845 566.208 677.426
C 566.222 680.963 565.331 686.164 568.126 688.886
C 571.04 691.725 576.339 690.954 579.955 691.972
C 579.98 694.155 579.864 696.461 580.061 698.629
C 579.787 698.933 577.745 698.616 577.31 698.603
C 574.297 698.517 571.29 698.325 568.269 698.29
C 560.504 698.199 552.761 698.1 544.995 698.271
C 540.861 698.362 536.649 698.803 532.524 698.706
C 532.538 696.593 532.367 694.387 532.641 692.292
C 536.513 691.046 543.284 691.414 545.381 687.217
C 546.398 685.179 545.949 682.206 545.954 679.999
C 545.966 674.999 545.952 669.999 545.944 665
C 545.917 649.334 545.938 633.667 545.885 618.002
C 545.87 613.52 545.856 609.038 545.817 604.556
C 545.797 602.329 546.072 599.807 545.193 597.703
C 543.308 593.191 536.575 593.138 532.461 592.894
C 531.96 591.279 532.324 588.794 532.465 587.11 Z
M 566.474 596.618
C 565.68 606.639 566.323 616.947 566.288 627
C 566.278 629.999 566.259 632.998 566.283 635.997
C 566.292 637.153 565.989 638.873 566.433 639.923
C 575.754 640.082 585.995 641.044 593.295 633.915
C 601.7 625.707 600.884 608.018 592.664 600.023
C 588.647 596.116 583.396 595.042 578.028 594.581
C 574.919 594.313 569.878 593.625 567.04 595.124
C 566.668 595.664 566.617 595.999 566.474 596.618 Z"
opacity="1" fill="rgb(102,68,143)" fill-rule="evenodd" />
<path d="
M 609.06 756.157
C 615.354 755.906 621.701 756.085 628.003 756.085
C 629.379 756.085 633.46 755.36 634.347 756.396
C 634.315 757.386 634.253 758.411 634.316 759.397
C 631.909 759.7 628.579 759.172 627.344 761.986
C 626.896 763.005 627.109 764.408 627.075 765.494
C 626.999 767.868 626.924 770.237 626.931 772.62
C 626.956 780.801 626.92 788.981 627.067 797.161
C 627.114 799.742 627.144 802.329 627.142 804.911
C 627.141 806.011 626.912 807.452 627.482 808.453
C 629.052 811.208 631.876 810.782 634.586 810.907
C 634.828 811.981 634.505 813.263 634.638 814.378
C 626.279 814.524 617.744 813.691 609.407 814.478
C 608.745 813.728 609.157 812.237 609.144 811.264
C 611.647 810.859 615.39 811.252 616.549 808.343
C 616.982 807.256 616.783 805.858 616.776 804.715
C 616.761 802.311 616.77 799.906 616.779 797.502
C 616.809 789.335 616.804 781.168 616.804 773.002
C 616.804 770.542 616.798 768.083 616.77 765.624
C 616.755 764.373 616.926 762.828 616.234 761.72
C 614.653 759.186 611.729 759.98 609.29 759.24
C 609.033 758.227 609.121 757.196 609.06 756.157 Z"
opacity="1" fill="rgb(103,68,142)" fill-rule="evenodd" />
<path d="
M 655.903 756.532
C 655.966 756.362 656.029 756.192 656.092 756.022
C 659.556 756.166 663.033 756.123 666.502 756.088
C 668.301 756.069 670.391 755.746 672.134 756.205
C 674.042 758.964 676.483 761.49 678.671 764.033
C 683.281 769.389 687.933 774.708 692.538 780.07
C 695.854 783.932 699.128 787.828 702.484 791.655
C 704.601 794.068 706.573 796.846 708.999 798.956
C 709.343 798.514 708.857 796.61 708.852 795.997
C 708.832 792.999 708.705 790.001 708.692 787.003
C 708.665 780.893 708.663 774.783 708.699 768.674
C 708.713 766.378 709.326 762.948 707.499 761.197
C 705.643 759.418 702.757 760.016 700.429 759.661
C 700.309 758.483 700.272 757.22 700.471 756.048
C 705.419 755.542 710.623 755.958 715.602 755.945
C 717.173 755.941 720.072 755.286 721.418 756.013
C 721.323 757.16 721.595 758.477 721.207 759.57
C 719.614 759.561 717.443 759.474 716.066 760.408
C 713.127 762.402 713.914 768.231 713.889 771.32
C 713.801 782.072 713.993 792.816 714.092 803.566
C 714.119 806.543 714.124 809.52 714.137 812.497
C 714.139 812.986 714.431 815.06 714.092 815.363
C 712.686 815.298 711.056 815.634 709.694 815.273
C 708.576 814.31 707.702 812.85 706.755 811.71
C 704.312 808.767 701.906 805.778 699.446 802.85
C 692.986 795.162 686.463 787.463 679.721 780.022
C 677.621 777.705 675.657 775.255 673.693 772.823
C 672.577 771.44 671.508 769.787 669.838 769.07
C 670.17 778.302 670.201 787.561 670.318 796.802
C 670.353 799.564 670.251 802.399 670.546 805.145
C 670.672 806.318 670.632 807.5 671.308 808.535
C 672.83 810.863 675.94 810.708 678.377 810.936
C 678.314 812.044 678.128 813.326 678.35 814.412
C 671.405 814.778 664.341 813.798 657.4 814.577
C 657.05 813.628 657.285 811.99 657.573 811.041
C 660.138 810.395 663.242 811.15 664.681 808.271
C 665.257 807.118 665.109 805.578 665.111 804.333
C 665.114 802.057 665.124 799.781 665.133 797.505
C 665.166 789.167 665.377 780.737 664.97 772.41
C 664.866 770.28 664.9 768.136 664.842 766.004
C 664.814 764.965 664.986 763.766 664.496 762.808
C 662.895 759.678 659.307 759.579 656.197 759.457
C 655.759 758.562 655.944 757.501 655.903 756.532 Z"
opacity="1" fill="rgb(102,66,141)" fill-rule="evenodd" />
<path d="
M 666.977 589.117
C 667.077 588.118 667.079 587.123 667.063 586.12
C 674.49 585.816 682.062 586.481 689.507 586.516
C 702.511 586.577 715.513 586.469 728.517 586.411
C 733.845 586.387 739.176 586.476 744.503 586.409
C 745.953 586.39 749.33 585.69 750.455 586.502
C 750.007 594.49 750.052 603.029 750.455 611.021
C 750.135 611.375 748.968 611.183 748.489 611.198
C 746.784 611.252 744.874 611.467 743.19 611.201
C 742.459 606.902 742.622 600.859 739.125 597.677
C 736.179 594.997 731.677 595.699 728.004 595.675
C 719.179 595.616 710.054 595.061 701.259 595.708
C 701.68 605.771 701.401 615.933 701.385 626.006
C 701.381 628.484 701.387 630.961 701.403 633.439
C 701.407 634.038 701.154 635.778 701.625 636.155
C 709.062 635.909 716.562 636.033 724.006 636.04
C 726.754 636.043 730.68 636.681 732.825 634.631
C 736.15 631.452 735.139 627.417 736.024 623.409
C 738.12 622.603 740.916 622.776 743.126 622.859
C 743.665 625.517 742.927 628.65 742.901 631.356
C 742.843 637.571 742.803 643.79 742.854 650.005
C 742.872 652.254 742.98 654.482 743.149 656.723
C 743.19 657.272 743.447 658.524 742.958 658.931
C 740.782 658.88 738.58 659.026 736.396 659.009
C 735.681 657.863 735.912 656.138 735.863 654.819
C 735.763 652.133 735.559 649.089 733.664 646.978
C 731.968 645.09 728.724 645.689 726.442 645.663
C 720.327 645.592 714.207 645.446 708.093 645.428
C 706.191 645.423 702.996 644.795 701.415 645.925
C 700.84 656.057 701.449 666.359 701.456 676.508
C 701.458 679.015 701.555 681.516 701.639 684.021
C 701.681 685.283 701.662 686.946 702.523 687.952
C 706.378 688.498 710.52 688.042 714.405 687.954
C 720.267 687.822 726.139 687.867 732.003 687.818
C 735.561 687.789 740.432 688.727 743.326 686.222
C 746.979 683.059 748.596 677.704 750.065 673.28
C 750.545 671.835 750.853 670.206 751.682 668.923
C 753.24 668.672 757.12 668.386 758.377 669.496
C 757.694 676.25 756.311 682.984 755.146 689.673
C 754.663 692.448 753.757 695.475 753.703 698.286
C 746.937 698.904 739.797 698.249 733.003 698.153
C 719.612 697.964 706.214 697.725 692.82 697.88
C 686.623 697.951 680.427 698.474 674.234 698.699
C 672.566 698.76 670.88 698.719 669.216 698.865
C 668.533 698.925 667.608 699.228 666.948 699.009
C 667.021 696.881 666.858 694.766 667.04 692.639
C 670.961 690.524 677.67 692.557 680.079 687.719
C 681.183 685.502 680.822 682.669 680.824 680.274
C 680.828 675.35 680.852 670.426 680.854 665.502
C 680.859 649.835 680.836 634.168 680.88 618.501
C 680.893 614.001 680.908 609.501 680.898 605.001
C 680.893 602.646 681.232 599.899 680.294 597.678
C 678.468 593.351 671.023 593 666.96 592.912
C 666.625 591.776 666.92 590.294 666.977 589.117 Z"
opacity="1" fill="rgb(103,68,143)" fill-rule="evenodd" />
<path d="
M 743.94 781.596
C 744.732 777.673 745.644 773.976 747.671 770.475
C 750.926 764.855 755.673 760.268 761.546 757.451
C 771.805 752.529 785.951 753.879 796.165 758.191
C 796.44 760.979 796.073 763.909 796.087 766.719
C 796.094 768.184 796.407 770.042 795.82 771.423
C 794.601 771.406 793.386 771.398 792.172 771.299
C 791.292 768.716 791.726 765.859 789.819 763.637
C 788.38 761.961 786.065 760.932 784.055 760.117
C 777.051 757.275 767.706 758.459 762.055 763.559
C 750.114 774.338 752.336 799.039 765.866 807.553
C 770.391 810.401 775.696 811.51 781.005 810.963
C 782.834 810.774 785.294 810.502 786.761 809.298
C 787.212 807.33 786.909 805.011 786.881 802.998
C 786.833 799.482 786.97 795.818 786.426 792.343
C 784.398 790.916 781.091 790.741 778.679 790.796
C 778.5 789.603 778.662 788.42 778.651 787.219
C 784.025 786.697 789.601 787.075 795 787.078
C 797.294 787.079 800.615 786.455 802.78 787.175
C 802.683 788.344 802.673 789.653 802.796 790.817
C 800.783 790.716 798.694 790.711 797.451 792.612
C 796.631 793.867 796.889 795.84 796.885 797.27
C 796.874 800.676 796.794 804.1 796.966 807.503
C 797.03 808.761 797.446 810.213 797.126 811.447
C 780.539 818.617 756.841 818.226 747.104 800.765
C 745.759 798.353 744.888 795.683 744.342 792.982
C 743.592 789.277 743.455 785.344 743.94 781.596 Z"
opacity="1" fill="rgb(103,67,141)" fill-rule="evenodd" />
<path d="
M 791.332 586.237
C 797.877 585.996 804.449 586.321 811.003 586.337
C 814.862 586.347 819.156 585.862 822.963 586.451
C 825.163 588.475 826.905 590.988 828.886 593.215
C 833.294 598.171 837.634 603.193 841.921 608.255
C 851.195 619.203 860.926 629.789 870.26 640.694
C 875.379 646.673 880.501 652.657 885.539 658.705
C 888.186 661.883 890.69 665.32 893.52 668.32
C 893.758 668.01 893.475 667.073 893.436 666.706
C 893.29 665.326 893.303 663.892 893.281 662.504
C 893.194 657.006 893.251 651.507 893.167 646.009
C 892.985 634.011 893.154 622.003 893.108 610.004
C 893.094 606.157 894.165 599.303 891.292 596.209
C 888.384 593.075 881.885 593.068 877.947 592.964
C 877.649 590.676 878.1 588.289 878.001 585.984
C 879.488 585.534 881.455 585.828 883.006 585.872
C 885.834 585.953 888.671 585.875 891.5 585.876
C 900.448 585.882 909.654 585.193 918.573 585.757
C 918.663 587.514 919.186 591.112 918.35 592.685
C 913.512 592.872 906.054 593.335 904.306 598.805
C 903.264 602.066 903.814 606.111 903.793 609.498
C 903.749 616.832 903.764 624.165 903.761 631.498
C 903.753 646.998 903.777 662.498 903.774 677.998
C 903.772 682.998 903.746 687.999 903.741 692.999
C 903.738 695.314 903.405 697.922 903.77 700.202
C 900.802 700.048 897.116 700.785 894.264 700.029
C 887.795 693.221 882.103 685.495 875.984 678.36
C 863.498 663.8 850.93 649.31 838.395 634.789
C 833.776 629.438 829.315 623.949 824.728 618.572
C 822.536 616.002 820.451 612.69 817.881 610.533
C 818.297 615.58 817.922 620.768 817.978 625.836
C 818.125 639.143 818.014 652.468 818.367 665.77
C 818.481 670.077 818.557 674.374 818.649 678.681
C 818.712 681.575 818.655 684.476 820.36 686.974
C 822.945 690.759 829.996 690.951 834.13 691.256
C 835.097 692.862 834.167 696.419 834.3 698.291
C 827.937 698.353 821.568 697.854 815.215 697.964
C 807.766 698.092 800.166 698.864 792.733 698.586
C 792.755 696.368 792.474 694.078 792.763 691.874
C 796.745 691.216 803.882 691.272 806.021 687.17
C 807.458 684.415 807.426 681.375 807.421 678.347
C 807.415 674.569 807.343 670.775 807.459 666.998
C 807.764 657.014 807.65 646.997 807.618 637.005
C 807.599 631.176 807.984 625.167 807.484 619.361
C 807.106 614.976 807.351 610.408 807.311 606.005
C 807.292 603.823 807.542 601.254 806.486 599.262
C 804.299 595.134 799.569 594.11 795.272 593.544
C 794.009 593.378 792.375 593.631 791.214 593.15
C 791.278 590.85 791.415 588.537 791.332 586.237 Z"
opacity="1" fill="rgb(103,69,143)" fill-rule="evenodd" />

</svg>